<svg xmlns="http://www.w3.org/2000/svg" viewBox="0 0 113 113"><defs><style>.cls-1{fill:#42d070;}.cls-2{fill:#fff;}</style></defs><title>アセット 10</title><g id="レイヤー_2" data-name="レイヤー 2"><g id="レイヤー_1-2" data-name="レイヤー 1"><circle class="cls-1" cx="56.5" cy="56.5" r="56.5"/><path class="cls-2" d="M85.71,36.2l-8.92-8.91a6.1,6.1,0,0,0-8.64,0l-5.78,5.78L34.12,61.32a11.29,11.29,0,0,0-2.63,4.14L25.77,81.4a4.56,4.56,0,0,0,5.84,5.83l15.93-5.72a11.21,11.21,0,0,0,4.14-2.63L78.42,52.14h0l1.51-1.51,5.78-5.78h0A6.11,6.11,0,0,0,85.71,36.2ZM37.14,64.34l28-28,5,5L41.71,69.77l-5-5C36.87,64.64,37,64.49,37.14,64.34Zm9,13.14L35.94,81.13l-4.07-4.07,3.65-10.15.09-.22,10.7,10.7A1.45,1.45,0,0,1,46.09,77.48Zm2.57-1.62-.46.4-5-5L71.69,42.82l5,5Zm34-34-4.27,4.27-.21.21L66.69,34.79l4.48-4.48a1.85,1.85,0,0,1,2.6,0l8.92,8.92a1.83,1.83,0,0,1,0,2.6Z"/></g></g></svg>