<svg xmlns="http://www.w3.org/2000/svg" viewBox="0 0 113 113"><defs><style>.cls-1{fill:#42d070;}.cls-2{fill:#fff;}</style></defs><title>アセット 12</title><g id="レイヤー_2" data-name="レイヤー 2"><g id="レイヤー_1-2" data-name="レイヤー 1"><circle class="cls-1" cx="56.5" cy="56.5" r="56.5"/><path class="cls-2" d="M35.87,37.67a6.89,6.89,0,1,0,6.89,6.89A6.89,6.89,0,0,0,35.87,37.67Z"/><path class="cls-2" d="M35.87,55.69A5.77,5.77,0,0,0,30,61.6l1.62,21.74a4.29,4.29,0,0,0,8.58,0L41.78,61.6A5.7,5.7,0,0,0,35.87,55.69Z"/><path class="cls-2" d="M81.79,51.45a6.89,6.89,0,1,0-6.89-6.89A6.9,6.9,0,0,0,81.79,51.45Z"/><path class="cls-2" d="M81.79,55.69a5.76,5.76,0,0,0-5.91,5.91L77.5,83.34a4.29,4.29,0,1,0,8.58,0L87.7,61.6A5.72,5.72,0,0,0,81.79,55.69Z"/><path class="cls-2" d="M67.89,34l-.44,1.6a7.13,7.13,0,0,1,3.36,2,4.41,4.41,0,0,1,1.25,3,4.32,4.32,0,0,1-.82,2.5A6.22,6.22,0,0,1,69,45l-.69.36.9,2a36.74,36.74,0,0,1-6.58-1.87h-.05a6.37,6.37,0,0,1-3.76-2.87l-1.46.8A8,8,0,0,0,62,47.07h0a35.79,35.79,0,0,0,8.46,2.19l1.44.15-1.49-3.32a7.58,7.58,0,0,0,2.18-2,6,6,0,0,0,1.13-3.45A6.11,6.11,0,0,0,72,36.47,8.72,8.72,0,0,0,67.89,34Z"/><path class="cls-2" d="M64.53,38.06a8.37,8.37,0,0,0,2.16-5.5,8,8,0,0,0-1-3.79,10.43,10.43,0,0,0-4.34-4.18A13.89,13.89,0,0,0,54.82,23a13.39,13.39,0,0,0-8.31,2.74,9.68,9.68,0,0,0-2.58,3,8,8,0,0,0-1,3.79,8.16,8.16,0,0,0,1.54,4.71,10.64,10.64,0,0,0,3.27,3l-2,4.45,1.44-.16a50.67,50.67,0,0,0,12-3.09A11.85,11.85,0,0,0,64.53,38.06Zm-5.9,1.83h0a51.16,51.16,0,0,1-10.11,2.79l1.42-3.18-.7-.36a9.32,9.32,0,0,1-3.36-2.83,6.54,6.54,0,0,1-1.23-3.76,6.3,6.3,0,0,1,.77-3,8.74,8.74,0,0,1,3.66-3.5,12.3,12.3,0,0,1,5.77-1.39A11.79,11.79,0,0,1,62.11,27a8.22,8.22,0,0,1,2.15,2.52,6.3,6.3,0,0,1,.77,3A6.65,6.65,0,0,1,63.28,37a10.12,10.12,0,0,1-4.63,2.91Z"/><path class="cls-2" d="M50.15,31.5a1.29,1.29,0,1,0,1.28,1.29A1.29,1.29,0,0,0,50.15,31.5Z"/><path class="cls-2" d="M55.11,31.5a1.29,1.29,0,1,0,1.29,1.29A1.28,1.28,0,0,0,55.11,31.5Z"/><path class="cls-2" d="M60.08,31.5a1.29,1.29,0,1,0,1.29,1.29A1.29,1.29,0,0,0,60.08,31.5Z"/></g></g></svg>