<svg xmlns="http://www.w3.org/2000/svg" viewBox="0 0 113 113"><defs><style>.cls-1{fill:#42d070;}.cls-2{fill:#fff;}</style></defs><title>アセット 9</title><g id="レイヤー_2" data-name="レイヤー 2"><g id="レイヤー_1-2" data-name="レイヤー 1"><circle class="cls-1" cx="56.5" cy="56.5" r="56.5"/><path class="cls-2" d="M53.62,64.23H64.28a3.88,3.88,0,0,0,0-7.76H48.77c-9.69,0-12.76,4-16.15,7.43l-6.16,5.38a1.83,1.83,0,0,0-.63,1.38V88.53a.61.61,0,0,0,1,.47l11.9-10.2a1.83,1.83,0,0,1,1.52-.41L58.8,81.76a4.91,4.91,0,0,0,3.7-.82S86.17,64.48,87.91,63h0a3.64,3.64,0,0,0,.12-5.4c-1.53-1.67-4.38-1.32-6.28.09C80,59.16,68.09,67,68.09,67H53.62l0,0a1.38,1.38,0,0,1,.09-2.76Z"/><path class="cls-2" d="M71.11,23.86a9.69,9.69,0,0,0-8.31,4.69,14.27,14.27,0,0,1,9.35,13.36c0,.45,0,.9-.07,1.34a9.72,9.72,0,0,0-1-19.39Z"/><path class="cls-2" d="M57.91,30.8A11.11,11.11,0,1,0,69,41.91,11.11,11.11,0,0,0,57.91,30.8ZM62.33,41h-3l-.33.51v1.21h3.37v1.72H59v2.61H56.87V44.45H53.5V42.73h3.37V41.51L56.54,41h-3V39.52h2.09l-1.78-2.77h1.77l2.33,3.63,2.33-3.63H62l-1.78,2.77h2.09V41Z"/></g></g></svg>